# xmcd
#
# Track frame offsets:
#	150
#	12192
#	25597
#	39899
#	56160
#	71765
#	88783
#	99343
#	111201
#	125059
#	142027
#	154515
#	168828
#	183439
#	192902
#	201279
#	205823
#	209066
#	215469
#	229261
#
# Disc length: 3217 seconds
#
# Revision: 0
# Processed by: cddbd v1.5.2PL0 Copyright (c) Steve Scherf et al.
# Submitted via: EasyCDDAExtractor 12.0.0.1
#
DISCID=210c8f14
DTITLE=Various Artist - ΛΑΙΚΑ 2009
DYEAR=2009
DGENRE=GREEK
TTITLE0=ΣΤΑΜΑΤΗΣ ΓΟΝΙΔΗΣ - ΣΟΥ ΧΡΕΙΑΖΕΤΑΙ
TTITLE1=ΒΑΣΙΛΗΣ ΚΑΡΡΑΣ - ΜΑΝΑ ΜΟΥ, ΔΕ ΜΟΥ ΤΟ ΕΙΠΕΣ
TTITLE2=ΕΛΕΑΝΑ ΠΑΠΑΙΩΑΝΝΟΥ - ΑΝ ΕΙΣΑΙ Η ΜΕΓΑΛΗ ΑΓΑΠΗ
TTITLE3=ΧΑΡΗΣ ΚΩΣΤΟΠΟΥΛΟΣ - ΞΕΝΑ ΚΡΕΒΑΤΙΑ
TTITLE4=ΓΙΑΝΝΗΣ ΑΠΟΣΤΟΛΙΔΗΣ - ΑΧ ΚΑΙ ΝΑ ΄ΒΡΕΧΕ ΓΥΝΑΙΚΕΣ
TTITLE5=ΜΑΡΙΑ ΠΑΛΛΗ - ΔΙΚΑΙΩΜΑ
TTITLE6=ΠΑΝΟΣ ΓΑΒΑΛΑΣ - ΣΗΚΩ ΠΑΝΩ , ΚΑΤΣΕ ΚΑΤΩ
TTITLE7=ΚΑΙΤΗ ΓΚΡΕΥ - ΧΕΛΙΔΟΝΑΚΙΑ (ΦΟΝΙΑΣ ΔΥΣΤΥΧΙΣΜΕΝΟΣ)
TTITLE8=ΑΝΔΡΕΑΣ ΖΑΚΥΝΘΙΝΑΚΗΣ - ΑΓΑΝΑΚΤΗΣΑ
TTITLE9=ΕΛΕΝΗ ΡΟΔΑ - ΘΕΛΩ ΝΑ ΣΟΥ ΡΙΞΩ ΜΙΑ ΓΡΟΘΙΑ
TTITLE10=ΣΤΡΑΤΟΣ ΚΥΠΡΙΟΣ - ΠΡΟΣΕΥΧΗ
TTITLE11=ΗΛΙΑΣ ΜΑΚΡΗΣ - ΚΑΨΕ , ΚΑΨΕ
TTITLE12=ΜΑΝΩΛΗΣ ΑΓΓΕΛΟΠΟΥΛΟΣ - ΠΟΙΟΣ ΘΕΟΣ
TTITLE13=ΔΗΜΗΤΡΗΣ ΕΥΣΤΑΘΙΟΥ - Η ΔΟΥΛΕΙΑ ΚΑΝΕΙ ΤΟΥΣ ΑΝΔΡΕΣ
TTITLE14=ΜΑΙΡΗ ΛΙΝΤΑ - ΠΕΡΑΣΜΕΝΕΣ ΜΟΥ ΑΓΑΠΕΣ
TTITLE15=ΜΑΙΡΗ ΛΙΝΤΑ - ΜΕΛΑΧΡΙΝΗ ΤΣΙΓΓΑΝΑ ΜΟΥ
TTITLE16=ΜΑΙΡΗ ΛΙΝΤΑ - ΣΒΗΣΕ ΤΗ ΦΛΟΓΑ
TTITLE17=ΜΑΙΡΗ ΛΙΝΤΑ - ΑΦΟΥ ΤΟ ΘΕΣ
TTITLE18=ΧΡΗΣΤΑΚΗΣ - ΤΟ ΠΟΥΛΙ
TTITLE19=ΛΕΟΝΑΡΔΟΣ ΜΠΟΥΡΝΕΛΗΣ - ΤΟ ΤΣΙΦΤΕΤΕΛΙ ΤΟΥ ΜΠΟΥΡΝΕΛΗ
EXTD=
EXTT0=
EXTT1=
EXTT2=
EXTT3=
EXTT4=
EXTT5=
EXTT6=
EXTT7=
EXTT8=
EXTT9=
EXTT10=
EXTT11=
EXTT12=
EXTT13=
EXTT14=
EXTT15=
EXTT16=
EXTT17=
EXTT18=
EXTT19=
PLAYORDER=
